<svg width="108" height="27" viewBox="0 0 108 27" fill="none" xmlns="http://www.w3.org/2000/svg">
<path d="M0.962 12.824C0.962 11.3507 1.25667 10.0593 1.846 8.95C2.45267 7.82333 3.28467 6.95667 4.342 6.35C5.39933 5.74333 6.61267 5.44 7.982 5.44C9.71533 5.44 11.1453 5.856 12.272 6.688C13.416 7.50267 14.1873 8.67267 14.586 10.198H11.388C11.128 9.48733 10.712 8.93267 10.14 8.534C9.568 8.13533 8.84867 7.936 7.982 7.936C6.76867 7.936 5.798 8.36933 5.07 9.236C4.35933 10.0853 4.004 11.2813 4.004 12.824C4.004 14.3667 4.35933 15.5713 5.07 16.438C5.798 17.3047 6.76867 17.738 7.982 17.738C9.698 17.738 10.8333 16.984 11.388 15.476H14.586C14.17 16.932 13.39 18.0933 12.246 18.96C11.102 19.8093 9.68067 20.234 7.982 20.234C6.61267 20.234 5.39933 19.9307 4.342 19.324C3.28467 18.7 2.45267 17.8333 1.846 16.724C1.25667 15.5973 0.962 14.2973 0.962 12.824ZM24.4298 5.44C25.5218 5.44 26.4925 5.674 27.3418 6.142C28.2085 6.61 28.8845 7.30333 29.3698 8.222C29.8725 9.14067 30.1238 10.25 30.1238 11.55V20H27.1858V11.992C27.1858 10.7093 26.8652 9.73 26.2238 9.054C25.5825 8.36067 24.7072 8.014 23.5978 8.014C22.4885 8.014 21.6045 8.36067 20.9458 9.054C20.3045 9.73 19.9838 10.7093 19.9838 11.992V20H17.0198V0.76H19.9838V7.338C20.4865 6.73133 21.1192 6.26333 21.8818 5.934C22.6618 5.60467 23.5112 5.44 24.4298 5.44ZM32.3966 12.772C32.3966 11.3333 32.6913 10.0593 33.2806 8.95C33.8873 7.84067 34.7019 6.98267 35.7246 6.376C36.7646 5.752 37.9086 5.44 39.1566 5.44C40.2833 5.44 41.2626 5.66533 42.0946 6.116C42.9439 6.54933 43.6199 7.09533 44.1226 7.754V5.674H47.1126V20H44.1226V17.868C43.6199 18.544 42.9353 19.1073 42.0686 19.558C41.2019 20.0087 40.2139 20.234 39.1046 20.234C37.8739 20.234 36.7473 19.922 35.7246 19.298C34.7019 18.6567 33.8873 17.7727 33.2806 16.646C32.6913 15.502 32.3966 14.2107 32.3966 12.772ZM44.1226 12.824C44.1226 11.836 43.9146 10.978 43.4986 10.25C43.0999 9.522 42.5713 8.96733 41.9126 8.586C41.2539 8.20467 40.5433 8.014 39.7806 8.014C39.0179 8.014 38.3073 8.20467 37.6486 8.586C36.9899 8.95 36.4526 9.496 36.0366 10.224C35.6379 10.9347 35.4386 11.784 35.4386 12.772C35.4386 13.76 35.6379 14.6267 36.0366 15.372C36.4526 16.1173 36.9899 16.6893 37.6486 17.088C38.3246 17.4693 39.0353 17.66 39.7806 17.66C40.5433 17.66 41.2539 17.4693 41.9126 17.088C42.5713 16.7067 43.0999 16.152 43.4986 15.424C43.9146 14.6787 44.1226 13.812 44.1226 12.824ZM53.9437 8.092V16.022C53.9437 16.5593 54.065 16.9493 54.3077 17.192C54.5677 17.4173 55.001 17.53 55.6077 17.53H57.4277V20H55.0877C53.753 20 52.7304 19.688 52.0197 19.064C51.309 18.44 50.9537 17.426 50.9537 16.022V8.092H49.2637V5.674H50.9537V2.112H53.9437V5.674H57.4277V8.092H53.9437ZM59.0935 12.928C59.0935 11.472 59.3795 10.198 59.9515 9.106C60.5409 8.014 61.3469 7.17333 62.3695 6.584C63.4095 5.99467 64.5882 5.7 65.9055 5.7C67.3962 5.7 68.6615 6.064 69.7015 6.792C70.7415 7.52 71.4695 8.44733 71.8855 9.574V5.882H73.0555V20H71.8855V16.282C71.4695 17.426 70.7329 18.3707 69.6755 19.116C68.6355 19.844 67.3789 20.208 65.9055 20.208C64.5882 20.208 63.4095 19.9133 62.3695 19.324C61.3469 18.7173 60.5409 17.868 59.9515 16.776C59.3795 15.6667 59.0935 14.384 59.0935 12.928ZM71.8855 12.928C71.8855 11.6973 71.6255 10.614 71.1055 9.678C70.6029 8.72467 69.9095 7.99667 69.0255 7.494C68.1415 6.974 67.1535 6.714 66.0615 6.714C64.9175 6.714 63.9122 6.96533 63.0455 7.468C62.1789 7.95333 61.5029 8.664 61.0175 9.6C60.5322 10.536 60.2895 11.6453 60.2895 12.928C60.2895 14.2107 60.5322 15.32 61.0175 16.256C61.5029 17.192 62.1789 17.9113 63.0455 18.414C63.9295 18.9167 64.9349 19.168 66.0615 19.168C67.1535 19.168 68.1415 18.9167 69.0255 18.414C69.9269 17.894 70.6289 17.166 71.1315 16.23C71.6342 15.2767 71.8855 14.176 71.8855 12.928ZM77.9657 9.6C78.3643 8.456 79.0837 7.52 80.1237 6.792C81.181 6.064 82.455 5.7 83.9457 5.7C85.263 5.7 86.433 5.99467 87.4557 6.584C88.4957 7.17333 89.3017 8.014 89.8737 9.106C90.463 10.198 90.7577 11.472 90.7577 12.928C90.7577 14.384 90.463 15.6667 89.8737 16.776C89.3017 17.868 88.4957 18.7173 87.4557 19.324C86.433 19.9133 85.263 20.208 83.9457 20.208C82.4723 20.208 81.207 19.844 80.1497 19.116C79.1097 18.3707 78.3817 17.4347 77.9657 16.308V26.656H76.7957V5.882H77.9657V9.6ZM89.5617 12.928C89.5617 11.6453 89.319 10.536 88.8337 9.6C88.3483 8.664 87.6637 7.95333 86.7797 7.468C85.913 6.96533 84.9077 6.714 83.7637 6.714C82.6717 6.714 81.6837 6.974 80.7997 7.494C79.9157 7.99667 79.2223 8.72467 78.7197 9.678C78.217 10.614 77.9657 11.6973 77.9657 12.928C77.9657 14.176 78.217 15.2767 78.7197 16.23C79.2223 17.166 79.9157 17.894 80.7997 18.414C81.6837 18.9167 82.6717 19.168 83.7637 19.168C84.9077 19.168 85.913 18.9167 86.7797 18.414C87.6637 17.9113 88.3483 17.192 88.8337 16.256C89.319 15.32 89.5617 14.2107 89.5617 12.928ZM94.9398 9.6C95.3385 8.456 96.0578 7.52 97.0978 6.792C98.1551 6.064 99.4291 5.7 100.92 5.7C102.237 5.7 103.407 5.99467 104.43 6.584C105.47 7.17333 106.276 8.014 106.848 9.106C107.437 10.198 107.732 11.472 107.732 12.928C107.732 14.384 107.437 15.6667 106.848 16.776C106.276 17.868 105.47 18.7173 104.43 19.324C103.407 19.9133 102.237 20.208 100.92 20.208C99.4465 20.208 98.1811 19.844 97.1238 19.116C96.0838 18.3707 95.3558 17.4347 94.9398 16.308V26.656H93.7698V5.882H94.9398V9.6ZM106.536 12.928C106.536 11.6453 106.293 10.536 105.808 9.6C105.322 8.664 104.638 7.95333 103.754 7.468C102.887 6.96533 101.882 6.714 100.738 6.714C99.6458 6.714 98.6578 6.974 97.7738 7.494C96.8898 7.99667 96.1965 8.72467 95.6938 9.678C95.1911 10.614 94.9398 11.6973 94.9398 12.928C94.9398 14.176 95.1911 15.2767 95.6938 16.23C96.1965 17.166 96.8898 17.894 97.7738 18.414C98.6578 18.9167 99.6458 19.168 100.738 19.168C101.882 19.168 102.887 18.9167 103.754 18.414C104.638 17.9113 105.322 17.192 105.808 16.256C106.293 15.32 106.536 14.2107 106.536 12.928Z" fill="#012A76"/>
</svg>
